<?xml version="1.0" encoding="utf-8"?>
<!-- Generator: Adobe Illustrator 17.1.0, SVG Export Plug-In . SVG Version: 6.00 Build 0)  -->
<!DOCTYPE svg PUBLIC "-//W3C//DTD SVG 1.1//EN" "http://www.w3.org/Graphics/SVG/1.1/DTD/svg11.dtd">
<svg version="1.1" id="Layer_1" xmlns="http://www.w3.org/2000/svg" xmlns:xlink="http://www.w3.org/1999/xlink" x="0px" y="0px"
	 viewBox="0 0 80 70" enable-background="new 0 0 80 70" xml:space="preserve">
<g>
	<g>
		<path d="M24.392,56.068l-3.93,8.688 M20.461,65.998c-0.171,0-0.345-0.036-0.511-0.111c-0.625-0.282-0.902-1.017-0.619-1.642
			l3.93-8.688c0.281-0.626,1.019-0.902,1.642-0.619c0.625,0.282,0.902,1.017,0.619,1.642l-3.93,8.688
			C21.385,65.727,20.933,65.998,20.461,65.998z M34.134,56.068l-3.93,8.688 M30.202,65.998c-0.171,0-0.345-0.036-0.511-0.111
			c-0.625-0.282-0.902-1.017-0.619-1.642l3.93-8.688c0.281-0.626,1.019-0.902,1.642-0.619c0.625,0.282,0.902,1.017,0.619,1.642
			l-3.93,8.688C31.127,65.727,30.676,65.998,30.202,65.998z M43.876,56.068l-3.93,8.688 M39.945,65.998
			c-0.171,0-0.345-0.036-0.511-0.111c-0.625-0.282-0.902-1.017-0.619-1.642l3.93-8.688c0.282-0.626,1.019-0.902,1.642-0.619
			c0.625,0.282,0.902,1.017,0.619,1.642l-3.93,8.688C40.869,65.727,40.417,65.998,39.945,65.998z"/>
	</g>
	<path stroke="#ffffff" stroke-miterlimit="10" d="M65.289,24.432c-0.053,0-0.105,0.001-0.156,0.001
		c-2.889-6.89-9.679-11.453-17.194-11.453c-0.596,0-1.185,0.039-1.77,0.095c-1.286-0.506-2.629-0.778-4.008-0.779
		c-2.489-5.789-8.226-9.614-14.575-9.614S15.499,6.505,13.01,12.295c-6.101,0.005-11.062,4.97-11.062,11.072
		c0,6.104,4.967,11.07,11.072,11.07c1.906,0,3.763-0.503,5.407-1.429c-0.489,1.363-0.771,2.827-0.771,4.358
		c0,7.132,5.803,12.934,12.935,12.934c2.822,0,5.556-0.929,7.799-2.628c2.884,1.722,6.166,2.628,9.551,2.628
		c3.384,0,6.665-0.907,9.55-2.628c2.244,1.7,4.977,2.628,7.799,2.628c7.132,0,12.935-5.802,12.935-12.934
		C78.224,30.235,72.421,24.432,65.289,24.432z M20.215,29.576L20.215,29.576L20.215,29.576c-1.55,1.374-5.137,2.24-7.195,2.24
		c-4.659,0-8.449-3.789-8.449-8.448c0-4.66,3.79-8.449,8.449-8.449c0.253,0,0.503,0.017,0.752,0.038l1.006,0.088l0.341-0.95
		c1.885-5.258,6.895-8.79,12.467-8.79s10.581,3.533,12.466,8.79l0.204,0.564c-4.211,1.919-7.661,5.365-9.512,9.775
		c-0.051-0.001-0.102-0.001-0.154-0.001c-4.22,0-7.963,2.04-10.326,5.177C20.248,29.598,20.231,29.589,20.215,29.576z
		 M65.289,47.679c-2.513,0-4.939-0.925-6.832-2.601L57.7,44.405l-0.842,0.564c-2.645,1.774-5.728,2.71-8.919,2.71
		c-3.192,0-6.276-0.937-8.92-2.71l-0.842-0.564l-0.758,0.673c-1.892,1.676-4.317,2.601-6.831,2.601
		c-5.687,0-10.312-4.626-10.312-10.311c0-1.51,0.334-2.939,0.918-4.232l0,0l0.648-1.038c1.902-3.05,5.171-4.87,8.747-4.87
		c0.311,0,0.616,0.021,0.92,0.047l1.005,0.086l0.34-0.95c2.093-5.838,7.424-9.981,13.579-10.556l2.337-0.218
		c6.402,0.335,12.065,4.504,14.253,10.602l0.339,0.95l1.005-0.087c0.306-0.026,0.612-0.047,0.922-0.047
		c5.687,0,10.311,4.627,10.311,10.314C75.601,43.053,70.976,47.679,65.289,47.679z"/>
	<path d="M51.317,60.363h13.016 M64.333,61.574H51.317c-0.67,0-1.211-0.541-1.211-1.211c0-0.67,0.541-1.211,1.211-1.211h13.016
		c0.67,0,1.211,0.541,1.211,1.211C65.544,61.032,65.001,61.574,64.333,61.574z M57.824,66.871V53.854 M57.824,68.082
		c-0.67,0-1.211-0.541-1.211-1.211V53.854c0-0.67,0.541-1.211,1.211-1.211c0.67,0,1.211,0.541,1.211,1.211v13.018
		C59.035,67.541,58.493,68.082,57.824,68.082z M53.221,64.965l9.206-9.206 M53.221,66.176c-0.31,0-0.62-0.119-0.856-0.355
		c-0.472-0.473-0.472-1.239,0-1.712l9.206-9.206c0.473-0.473,1.239-0.473,1.712,0c0.473,0.473,0.473,1.239,0,1.712l-9.206,9.206
		C53.84,66.058,53.531,66.176,53.221,66.176z M62.426,64.965L53.22,55.76 M62.426,66.176c-0.31,0-0.62-0.119-0.856-0.355
		l-9.206-9.206c-0.472-0.473-0.472-1.239,0-1.712c0.473-0.473,1.239-0.473,1.712,0l9.206,9.206c0.473,0.473,0.473,1.239,0,1.712
		C63.046,66.058,62.736,66.176,62.426,66.176z"/>
</g>
</svg>
