<?xml version="1.0" encoding="utf-8"?>
<!-- Generator: Adobe Illustrator 17.1.0, SVG Export Plug-In . SVG Version: 6.00 Build 0)  -->
<!DOCTYPE svg PUBLIC "-//W3C//DTD SVG 1.1//EN" "http://www.w3.org/Graphics/SVG/1.1/DTD/svg11.dtd">
<svg version="1.1" id="Layer_1" xmlns="http://www.w3.org/2000/svg" xmlns:xlink="http://www.w3.org/1999/xlink" x="0px" y="0px"
	 viewBox="0 0 80 70" enable-background="new 0 0 80 70" xml:space="preserve">
<path fill="#ffffff" d="M66.662,37.423h-4.846c-1.339,0-2.425-1.085-2.425-2.423c0-1.338,1.085-2.424,2.425-2.424h4.846
	c1.339,0,2.424,1.086,2.424,2.424C69.086,36.337,68.003,37.423,66.662,37.423z M60.57,17.861c0.943-0.946,0.943-2.481,0-3.427
	c-0.947-0.946-2.485-0.946-3.428,0l-3.429,3.427c-0.946,0.947-0.946,2.482,0,3.428c0.944,0.946,2.482,0.946,3.429,0L60.57,17.861z
	 M54.544,35c0,8.031-6.51,14.542-14.542,14.542S25.456,43.031,25.456,35c0-8.032,6.511-14.544,14.545-14.544
	C48.034,20.456,54.544,26.968,54.544,35z M49.695,35c0-5.355-4.34-9.695-9.694-9.695S30.305,29.645,30.305,35
	c0,5.354,4.343,9.695,9.696,9.695S49.695,40.354,49.695,35z M42.425,13.186V8.338c0-1.338-1.085-2.424-2.424-2.424
	c-1.339,0-2.424,1.086-2.424,2.424v4.847c0,1.338,1.085,2.424,2.424,2.424C41.337,15.61,42.425,14.524,42.425,13.186z M26.29,21.29
	c0.946-0.946,0.946-2.481,0-3.428l-3.428-3.427c-0.946-0.946-2.481-0.946-3.427,0c-0.946,0.946-0.946,2.482,0,3.427l3.427,3.428
	C23.808,22.235,25.343,22.235,26.29,21.29z M18.186,32.576h-4.849c-1.337,0-2.423,1.086-2.423,2.424
	c0,1.337,1.085,2.423,2.423,2.423h4.849c1.338,0,2.424-1.085,2.424-2.423C20.61,33.662,19.525,32.576,18.186,32.576z M19.434,52.139
	c-0.946,0.946-0.946,2.482,0,3.427c0.946,0.947,2.482,0.947,3.427,0l3.428-3.427c0.946-0.947,0.946-2.482,0-3.428
	c-0.946-0.946-2.481-0.946-3.428,0L19.434,52.139z M37.577,56.813v4.849c0,1.339,1.085,2.424,2.424,2.424
	c1.339,0,2.424-1.085,2.424-2.424v-4.849c0-1.339-1.085-2.423-2.424-2.423C38.662,54.39,37.577,55.475,37.577,56.813z
	 M53.713,48.711c-0.946,0.946-0.946,2.481,0,3.428l3.429,3.427c0.944,0.947,2.481,0.947,3.428,0c0.943-0.945,0.943-2.481,0-3.427
	l-3.428-3.428C56.192,47.764,54.657,47.764,53.713,48.711z"/>
</svg>
