<?xml version="1.0" encoding="utf-8"?>
<!-- Generator: Adobe Illustrator 17.1.0, SVG Export Plug-In . SVG Version: 6.00 Build 0)  -->
<!DOCTYPE svg PUBLIC "-//W3C//DTD SVG 1.1//EN" "http://www.w3.org/Graphics/SVG/1.1/DTD/svg11.dtd">
<svg version="1.1" id="Layer_1" xmlns="http://www.w3.org/2000/svg" xmlns:xlink="http://www.w3.org/1999/xlink" x="0px" y="0px"
	 viewBox="0 0 80 70" enable-background="new 0 0 80 70" xml:space="preserve">
<g>
	<path fill="#FFFFFF" d="M33.1,54.2c-0.7-0.3-1.6,0-1.9,0.7l-4.6,10.3c-0.3,0.7,0,1.6,0.7,1.9c0.2,0.1,0.4,0.1,0.6,0.1
		c0.6,0,1.1-0.3,1.3-0.9l4.6-10.3C34.2,55.4,33.9,54.5,33.1,54.2z"/>
	<path fill="#FFFFFF" d="M44.7,54.2c-0.7-0.3-1.6,0-1.9,0.7l-4.6,10.3c-0.3,0.7,0,1.6,0.7,1.9c0.2,0.1,0.4,0.1,0.6,0.1
		c0.6,0,1.1-0.3,1.3-0.9l4.6-10.3C45.7,55.4,45.4,54.5,44.7,54.2z"/>
	<path fill="#FFFFFF" d="M21.6,54.2c-0.7-0.3-1.6,0-1.9,0.7L15,65.2c-0.3,0.7,0,1.6,0.7,1.9c0.2,0.1,0.4,0.1,0.6,0.1
		c0.6,0,1.1-0.3,1.3-0.9l4.6-10.3C22.7,55.4,22.4,54.5,21.6,54.2z"/>
	<path fill="#FFFFFF" d="M67.7,54.2c-0.7-0.3-1.6,0-1.9,0.7l-4.6,10.3c-0.3,0.7,0,1.6,0.7,1.9c0.2,0.1,0.4,0.1,0.6,0.1
		c0.6,0,1.1-0.3,1.3-0.9l4.6-10.3C68.8,55.4,68.4,54.5,67.7,54.2z"/>
	<path fill="#FFFFFF" d="M56.2,54.2c-0.7-0.3-1.6,0-1.9,0.7l-4.6,10.3c-0.3,0.7,0,1.6,0.7,1.9c0.2,0.1,0.4,0.1,0.6,0.1
		c0.6,0,1.1-0.3,1.3-0.9l4.6-10.3C57.3,55.4,56.9,54.5,56.2,54.2z"/>
	<path fill="#FFFFFF" d="M65.9,23c-3.3-7-10.3-11.4-18-11.4c-0.5,0-1,0-1.6,0.1c-1.1-0.4-2.2-0.6-3.3-0.7C40.1,5,34.1,1.3,27.5,1.3
		C20.9,1.3,15,5,12.1,10.9C5.7,11.4,0.6,16.7,0.6,23.3c0,6.8,5.6,12.4,12.4,12.4c1.2,0,2.3-0.2,3.4-0.5c-0.1,0.7-0.2,1.4-0.2,2.1
		c0,7.9,6.4,14.3,14.3,14.3c2.8,0,5.5-0.8,7.9-2.4c2.9,1.6,6.1,2.4,9.4,2.4c3.3,0,6.6-0.8,9.4-2.4c2.3,1.5,5.1,2.4,7.9,2.4
		c7.9,0,14.3-6.4,14.3-14.3C79.4,29.6,73.4,23.4,65.9,23z M57.7,42.6L56,43.7c-2.4,1.6-5.2,2.5-8.1,2.5c-2.9,0-5.7-0.9-8.1-2.5
		L38,42.6l-1.5,1.4c-1.6,1.5-3.7,2.3-5.9,2.3c-4.9,0-8.9-4-8.9-8.9c0-1.2,0.3-2.4,0.8-3.6l0.6-1c1.6-2.6,4.5-4.2,7.6-4.2
		c0.3,0,0.5,0,0.8,0l2,0.2l0.7-1.9c1.9-5.3,6.8-9.1,12.4-9.6l2.2-0.2c5.9,0.3,10.9,4.1,12.9,9.7l0.7,1.9l2-0.2c0.3,0,0.5,0,0.8,0
		c4.9,0,8.9,4,8.9,8.9c0,2.4-0.9,4.6-2.6,6.3s-3.9,2.6-6.3,2.6c-2.2,0-4.3-0.8-5.9-2.3L57.7,42.6z M15.7,16.4l0.7-1.9
		c1.7-4.7,6.2-7.9,11.2-7.9c4.8,0,9.1,2.9,11,7.3c-3.8,2-6.8,5.2-8.7,9.1c-4.1,0.2-7.8,2.1-10.4,5.3l-0.2,0.1
		c-1.2,1.1-4.4,1.9-6.3,1.9c-3.9,0-7.1-3.2-7.1-7.1c0-3.9,3.2-7.1,7.1-7.1c0.2,0,0.4,0,0.6,0L15.7,16.4z"/>
</g>
</svg>
