<?xml version="1.0" encoding="utf-8"?>
<!-- Generator: Adobe Illustrator 17.1.0, SVG Export Plug-In . SVG Version: 6.00 Build 0)  -->
<!DOCTYPE svg PUBLIC "-//W3C//DTD SVG 1.1//EN" "http://www.w3.org/Graphics/SVG/1.1/DTD/svg11.dtd">
<svg version="1.1" id="Layer_1" xmlns="http://www.w3.org/2000/svg" xmlns:xlink="http://www.w3.org/1999/xlink" x="0px" y="0px"
	 viewBox="0 0 80 70" enable-background="new 0 0 80 70" xml:space="preserve">
<g>
	<path stroke="#ffffff" stroke-miterlimit="10" d="M65.144,24.382c-0.053,0-0.104,0.001-0.155,0.001
		c-2.883-6.874-9.657-11.427-17.155-11.427c-0.594,0-1.183,0.039-1.766,0.095c-1.283-0.505-2.623-0.776-3.999-0.777
		c-2.483-5.776-8.207-9.593-14.541-9.593s-12.059,3.815-14.542,9.593C6.898,12.279,1.948,17.232,1.948,23.32
		c0,6.09,4.956,11.045,11.046,11.045c1.902,0,3.755-0.502,5.394-1.425c-0.488,1.36-0.769,2.82-0.769,4.348
		c0,7.116,5.79,12.905,12.906,12.905c2.816,0,5.543-0.926,7.782-2.622c2.877,1.718,6.152,2.622,9.529,2.622
		c3.376,0,6.65-0.905,9.528-2.622c2.238,1.696,4.966,2.622,7.782,2.622c7.116,0,12.906-5.789,12.906-12.905
		C78.05,30.172,72.26,24.382,65.144,24.382z M20.173,29.515L20.173,29.515L20.173,29.515c-1.547,1.371-5.126,2.235-7.178,2.235
		c-4.648,0-8.43-3.781-8.43-8.429c0-4.649,3.782-8.43,8.43-8.43c0.253,0,0.502,0.017,0.751,0.038l1.004,0.087l0.34-0.948
		c1.88-5.246,6.879-8.77,12.439-8.77s10.557,3.524,12.438,8.77l0.203,0.563c-4.202,1.914-7.643,5.353-9.49,9.752
		c-0.051-0.001-0.102-0.001-0.154-0.001c-4.21,0-7.945,2.036-10.302,5.165C20.206,29.536,20.189,29.527,20.173,29.515z
		 M65.144,47.576c-2.507,0-4.927-0.923-6.816-2.595l-0.755-0.671l-0.84,0.562c-2.639,1.77-5.715,2.704-8.899,2.704
		s-6.262-0.934-8.9-2.704l-0.84-0.562l-0.756,0.671c-1.888,1.673-4.307,2.595-6.815,2.595c-5.674,0-10.289-4.615-10.289-10.288
		c0-1.507,0.333-2.933,0.916-4.222l0,0l0.646-1.035c1.897-3.043,5.16-4.859,8.727-4.859c0.311,0,0.615,0.021,0.918,0.046
		l1.002,0.086l0.339-0.948c2.088-5.824,7.407-9.958,13.548-10.532l2.331-0.218C55.05,15.941,60.7,20.1,62.883,26.184l0.338,0.948
		l1.002-0.087c0.305-0.026,0.61-0.046,0.92-0.046c5.674,0,10.288,4.616,10.288,10.291C75.433,42.961,70.819,47.576,65.144,47.576z"
		/>
	<path d="M17.535,58.933h8.502 M26.037,59.724h-8.502c-0.437,0-0.791-0.354-0.791-0.791c0-0.437,0.354-0.791,0.791-0.791h8.502
		c0.437,0,0.791,0.354,0.791,0.791C26.828,59.37,26.474,59.724,26.037,59.724z M21.786,63.184v-8.502 M21.786,63.975
		c-0.437,0-0.791-0.354-0.791-0.791v-8.502c0-0.437,0.354-0.791,0.791-0.791s0.791,0.354,0.791,0.791v8.502
		C22.577,63.621,22.223,63.975,21.786,63.975z M18.78,61.939l6.012-6.012 M18.78,62.73c-0.202,0-0.405-0.078-0.559-0.232
		c-0.309-0.309-0.309-0.809,0-1.118l6.012-6.012c0.309-0.309,0.809-0.309,1.118,0c0.309,0.309,0.309,0.809,0,1.118l-6.012,6.012
		C19.185,62.652,18.982,62.73,18.78,62.73z M24.792,61.939l-6.012-6.012 M24.792,62.73c-0.202,0-0.405-0.078-0.559-0.232
		l-6.012-6.012c-0.309-0.309-0.309-0.809,0-1.118c0.309-0.309,0.809-0.309,1.118,0l6.012,6.012c0.309,0.309,0.309,0.809,0,1.118
		C25.197,62.652,24.994,62.73,24.792,62.73z M35.749,58.933h8.502 M44.251,59.724h-8.502c-0.437,0-0.791-0.354-0.791-0.791
		c0-0.437,0.354-0.791,0.791-0.791h8.502c0.437,0,0.791,0.354,0.791,0.791C45.042,59.37,44.688,59.724,44.251,59.724z M40,63.184
		v-8.502 M40,63.975c-0.437,0-0.791-0.354-0.791-0.791v-8.502c0-0.437,0.354-0.791,0.791-0.791s0.791,0.354,0.791,0.791v8.502
		C40.791,63.621,40.437,63.975,40,63.975z M43.006,55.927l-6.012,6.012 M36.994,62.73c-0.202,0-0.405-0.078-0.559-0.232
		c-0.309-0.309-0.309-0.809,0-1.118l6.012-6.012c0.309-0.309,0.809-0.309,1.118,0c0.309,0.309,0.309,0.809,0,1.118l-6.012,6.012
		C37.399,62.652,37.196,62.73,36.994,62.73z M43.006,61.939l-6.012-6.012 M43.006,62.73c-0.202,0-0.405-0.078-0.559-0.232
		l-6.012-6.012c-0.309-0.309-0.309-0.809,0-1.118c0.309-0.309,0.809-0.309,1.118,0l6.012,6.012c0.309,0.309,0.309,0.809,0,1.118
		C43.411,62.652,43.208,62.73,43.006,62.73z M44.857,68.519h8.502 M53.964,58.933h8.501 M62.465,59.724h-8.501
		c-0.437,0-0.791-0.354-0.791-0.791c0-0.437,0.354-0.791,0.791-0.791h8.501c0.437,0,0.791,0.354,0.791,0.791
		C63.256,59.37,62.901,59.724,62.465,59.724z M58.214,63.184v-8.502 M58.214,63.975c-0.437,0-0.791-0.354-0.791-0.791v-8.502
		c0-0.437,0.354-0.791,0.791-0.791c0.437,0,0.791,0.354,0.791,0.791v8.502C59.005,63.621,58.651,63.975,58.214,63.975z
		 M55.208,61.939l6.012-6.012 M55.208,62.73c-0.202,0-0.405-0.078-0.559-0.232c-0.308-0.309-0.308-0.809,0-1.118l6.012-6.012
		c0.309-0.309,0.809-0.309,1.118,0c0.309,0.309,0.309,0.809,0,1.118l-6.012,6.012C55.612,62.652,55.41,62.73,55.208,62.73z
		 M61.219,61.939l-6.012-6.012 M61.219,62.73c-0.202,0-0.405-0.078-0.559-0.232l-6.012-6.012c-0.308-0.309-0.308-0.809,0-1.118
		c0.309-0.309,0.809-0.309,1.118,0l6.012,6.012c0.309,0.309,0.309,0.809,0,1.118C61.624,62.652,61.422,62.73,61.219,62.73z"/>
</g>
</svg>
