<?xml version="1.0" encoding="utf-8"?>
<!-- Generator: Adobe Illustrator 17.1.0, SVG Export Plug-In . SVG Version: 6.00 Build 0)  -->
<!DOCTYPE svg PUBLIC "-//W3C//DTD SVG 1.1//EN" "http://www.w3.org/Graphics/SVG/1.1/DTD/svg11.dtd">
<svg version="1.1" id="Layer_1" xmlns="http://www.w3.org/2000/svg" xmlns:xlink="http://www.w3.org/1999/xlink" x="0px" y="0px"
	 viewBox="0 0 80 70" enable-background="new 0 0 80 70" xml:space="preserve">
<g>
	<path d="M39.644,63.279c-15.713,0-28.495-12.78-28.495-28.49c0-13.811,9.867-25.599,23.461-28.028
		c0.83-0.149,1.675,0.122,2.265,0.72c0.589,0.599,0.846,1.45,0.686,2.275c-0.294,1.51-0.444,3.022-0.444,4.494
		c0,12.897,10.496,23.391,23.398,23.391c1.343,0,2.694-0.126,4.134-0.385c0.832-0.145,1.675,0.121,2.265,0.719
		c0.591,0.599,0.848,1.452,0.687,2.276C65.009,53.595,53.25,63.279,39.644,63.279z M32.066,12.664
		c-9.346,3.178-15.82,11.986-15.82,22.123c0,12.899,10.496,23.393,23.398,23.393c9.965,0,18.723-6.326,22.01-15.467
		c-0.38,0.017-0.76,0.024-1.138,0.024c-15.713,0-28.495-12.78-28.495-28.489C32.02,13.725,32.035,13.196,32.066,12.664z"/>
</g>
</svg>
