<?xml version="1.0" encoding="utf-8"?>
<!-- Generator: Adobe Illustrator 17.1.0, SVG Export Plug-In . SVG Version: 6.00 Build 0)  -->
<!DOCTYPE svg PUBLIC "-//W3C//DTD SVG 1.1//EN" "http://www.w3.org/Graphics/SVG/1.1/DTD/svg11.dtd">
<svg version="1.1" id="Layer_1" xmlns="http://www.w3.org/2000/svg" xmlns:xlink="http://www.w3.org/1999/xlink" x="0px" y="0px"
	 viewBox="0 0 80 70" enable-background="new 0 0 80 70" xml:space="preserve">
<g>
	<path stroke="#ffffff" stroke-miterlimit="10" d="M65.289,32.941c-0.053,0-0.105,0.001-0.156,0.001
		c-2.889-6.89-9.679-11.453-17.194-11.453c-0.596,0-1.185,0.039-1.77,0.095c-1.286-0.506-2.629-0.778-4.008-0.779
		c-2.489-5.789-8.226-9.614-14.575-9.614s-12.087,3.824-14.576,9.614C6.909,20.81,1.948,25.775,1.948,31.876
		c0,6.104,4.967,11.07,11.072,11.07c1.906,0,3.763-0.503,5.407-1.429c-0.489,1.363-0.771,2.827-0.771,4.358
		c0,7.132,5.803,12.934,12.935,12.934c2.822,0,5.556-0.929,7.799-2.628c2.884,1.722,6.166,2.628,9.551,2.628
		c3.384,0,6.665-0.907,9.55-2.628c2.244,1.7,4.977,2.628,7.799,2.628c7.132,0,12.935-5.802,12.935-12.934
		C78.224,38.744,72.421,32.941,65.289,32.941z M20.215,38.085L20.215,38.085L20.215,38.085c-1.55,1.374-5.137,2.24-7.195,2.24
		c-4.659,0-8.449-3.789-8.449-8.448c0-4.66,3.79-8.449,8.449-8.449c0.253,0,0.503,0.017,0.752,0.038l1.006,0.088l0.341-0.95
		c1.885-5.258,6.895-8.79,12.467-8.79s10.581,3.533,12.466,8.79l0.204,0.564c-4.211,1.919-7.661,5.365-9.512,9.775
		c-0.051-0.001-0.102-0.001-0.154-0.001c-4.22,0-7.963,2.04-10.326,5.177C20.248,38.107,20.231,38.098,20.215,38.085z
		 M65.289,56.188c-2.513,0-4.939-0.925-6.832-2.601L57.7,52.914l-0.842,0.564c-2.645,1.774-5.728,2.71-8.919,2.71
		c-3.192,0-6.276-0.937-8.92-2.71l-0.842-0.564l-0.758,0.673c-1.892,1.676-4.317,2.601-6.831,2.601
		c-5.687,0-10.312-4.626-10.312-10.311c0-1.51,0.334-2.939,0.918-4.232l0,0l0.648-1.038c1.902-3.05,5.171-4.87,8.747-4.87
		c0.311,0,0.616,0.021,0.92,0.047l1.005,0.086l0.34-0.95c2.093-5.838,7.424-9.981,13.579-10.556l2.337-0.218
		c6.402,0.335,12.065,4.504,14.253,10.602l0.339,0.95l1.005-0.087c0.306-0.026,0.612-0.047,0.922-0.047
		c5.687,0,10.311,4.627,10.311,10.314C75.601,51.562,70.976,56.188,65.289,56.188z"/>
</g>
</svg>
