<?xml version="1.0" encoding="utf-8"?>
<!-- Generator: Adobe Illustrator 19.0.0, SVG Export Plug-In . SVG Version: 6.00 Build 0)  -->
<svg version="1.1" id="Layer_1" xmlns="http://www.w3.org/2000/svg" xmlns:xlink="http://www.w3.org/1999/xlink" x="0px" y="0px"
	 viewBox="-265 362 80 70" style="enable-background:new -265 362 80 70;" xml:space="preserve">
<style type="text/css">
	.st0{fill:#FFFFFF;stroke:#FFFFFF;stroke-width:2.1859;stroke-miterlimit:10;}
	.st1{fill:#FFFFFF;}
</style>
<path class="st0" d="M-203.5,407.3c0,0-0.1,0-0.1,0c-2.5-5.9-8.2-9.7-14.6-9.7c-0.5,0-1,0-1.5,0.1c-1.1-0.4-2.2-0.7-3.4-0.7
	c-2.1-4.9-7-8.2-12.4-8.2c-5.4,0-10.3,3.3-12.4,8.2c-5.2,0-9.4,4.2-9.4,9.4c0,5.2,4.2,9.4,9.4,9.4c1.6,0,3.2-0.4,4.6-1.2
	c-0.4,1.2-0.7,2.4-0.7,3.7c0,6.1,4.9,11,11,11c2.4,0,4.7-0.8,6.6-2.2c2.5,1.5,5.2,2.2,8.1,2.2s5.7-0.8,8.1-2.2
	c1.9,1.4,4.2,2.2,6.6,2.2c6.1,0,11-4.9,11-11C-192.5,412.2-197.5,407.3-203.5,407.3z M-241.9,411.7L-241.9,411.7L-241.9,411.7
	c-1.3,1.2-4.4,1.9-6.1,1.9c-4,0-7.2-3.2-7.2-7.2c0-4,3.2-7.2,7.2-7.2c0.2,0,0.4,0,0.6,0l0.9,0.1l0.3-0.8c1.6-4.5,5.9-7.5,10.6-7.5
	s9,3,10.6,7.5l0.2,0.5c-3.6,1.6-6.5,4.6-8.1,8.3c0,0-0.1,0-0.1,0C-236.7,407.3-239.9,409-241.9,411.7
	C-241.9,411.7-241.9,411.7-241.9,411.7z M-203.5,427.1c-2.1,0-4.2-0.8-5.8-2.2l-0.6-0.6l-0.7,0.5c-2.3,1.5-4.9,2.3-7.6,2.3
	s-5.3-0.8-7.6-2.3l-0.7-0.5l-0.6,0.6c-1.6,1.4-3.7,2.2-5.8,2.2c-4.8,0-8.8-3.9-8.8-8.8c0-1.3,0.3-2.5,0.8-3.6l0,0l0.6-0.9
	c1.6-2.6,4.4-4.1,7.4-4.1c0.3,0,0.5,0,0.8,0l0.9,0.1l0.3-0.8c1.8-5,6.3-8.5,11.6-9l2-0.2c5.4,0.3,10.3,3.8,12.1,9l0.3,0.8l0.9-0.1
	c0.3,0,0.5,0,0.8,0c4.8,0,8.8,3.9,8.8,8.8C-194.8,423.1-198.7,427.1-203.5,427.1z"/>
<g>
	<path class="st1" d="M-204.7,380.3l3.5-3.5c1-1,1-2.5,0-3.5c-1-1-2.5-1-3.5,0l-3.5,3.5c-1,1-1,2.5,0,3.5
		C-207.2,381.3-205.7,381.3-204.7,380.3z"/>
	<path class="st1" d="M-233.9,390.3c0.9,0.1,1.7,0.3,2.6,0.5c1.4-3.8,5-6.5,9.2-6.5c5.4,0,9.8,4.4,9.8,9.8c0,2.4-0.9,4.5-2.2,6.2
		c0,0.1,0.1,0.2,0.1,0.3c1.7,0.1,3.3,0.6,4.8,1.3c1.4-2.3,2.2-4.9,2.2-7.7c0-8.1-6.6-14.8-14.8-14.8c-5.9,0-11,3.5-13.3,8.5
		C-234.9,388.7-234.3,389.4-233.9,390.3z"/>
	<path class="st1" d="M-195.1,391.7h-4.9c-1.4,0-2.5,1.1-2.5,2.5s1.1,2.5,2.5,2.5h4.9c1.4,0,2.5-1.1,2.5-2.5
		C-192.6,392.8-193.7,391.7-195.1,391.7z"/>
	<path class="st1" d="M-239.5,380.3c1,1,2.5,1,3.5,0c1-1,1-2.5,0-3.5l-3.5-3.5c-1-1-2.5-1-3.5,0c-1,1-1,2.5,0,3.5L-239.5,380.3z"/>
	<path class="st1" d="M-222.1,374.5c1.4,0,2.5-1.1,2.5-2.5v-4.9c0-1.4-1.1-2.5-2.5-2.5s-2.5,1.1-2.5,2.5v4.9
		C-224.6,373.4-223.5,374.5-222.1,374.5z"/>
</g>
</svg>
