<?xml version="1.0" encoding="utf-8"?>
<!-- Generator: Adobe Illustrator 19.0.0, SVG Export Plug-In . SVG Version: 6.00 Build 0)  -->
<svg version="1.1" id="Layer_1" xmlns="http://www.w3.org/2000/svg" xmlns:xlink="http://www.w3.org/1999/xlink" x="0px" y="0px"
	 viewBox="-265 362 80 70" style="enable-background:new -265 362 80 70;" xml:space="preserve">
<style type="text/css">
	.st0{fill:#FFFFFF;stroke:#FFFFFF;stroke-width:2.1864;stroke-miterlimit:10;}
	.st1{fill:#FFFFFF;stroke:#FFFFFF;stroke-width:1.0932;stroke-miterlimit:10;}
</style>
<g>
	<path class="st0" d="M-203.4,407.3c0,0-0.1,0-0.1,0c-2.5-5.9-8.2-9.8-14.6-9.8c-0.5,0-1,0-1.5,0.1c-1.1-0.4-2.2-0.7-3.4-0.7
		c-2.1-4.9-7-8.2-12.4-8.2s-10.3,3.3-12.4,8.2c-5.2,0-9.4,4.2-9.4,9.4c0,5.2,4.2,9.4,9.4,9.4c1.6,0,3.2-0.4,4.6-1.2
		c-0.4,1.2-0.7,2.4-0.7,3.7c0,6.1,4.9,11,11,11c2.4,0,4.7-0.8,6.6-2.2c2.5,1.5,5.3,2.2,8.1,2.2c2.9,0,5.7-0.8,8.1-2.2
		c1.9,1.4,4.2,2.2,6.6,2.2c6.1,0,11-4.9,11-11C-192.4,412.2-197.4,407.3-203.4,407.3z M-241.8,411.7L-241.8,411.7L-241.8,411.7
		c-1.3,1.2-4.4,1.9-6.1,1.9c-4,0-7.2-3.2-7.2-7.2c0-4,3.2-7.2,7.2-7.2c0.2,0,0.4,0,0.6,0l0.9,0.1l0.3-0.8c1.6-4.5,5.9-7.5,10.6-7.5
		s9,3,10.6,7.5l0.2,0.5c-3.6,1.6-6.5,4.6-8.1,8.3c0,0-0.1,0-0.1,0C-236.6,407.3-239.8,409-241.8,411.7
		C-241.8,411.7-241.8,411.7-241.8,411.7z M-203.4,427.1c-2.1,0-4.2-0.8-5.8-2.2l-0.6-0.6l-0.7,0.5c-2.3,1.5-4.9,2.3-7.6,2.3
		c-2.7,0-5.3-0.8-7.6-2.3l-0.7-0.5l-0.6,0.6c-1.6,1.4-3.7,2.2-5.8,2.2c-4.8,0-8.8-3.9-8.8-8.8c0-1.3,0.3-2.5,0.8-3.6l0,0l0.6-0.9
		c1.6-2.6,4.4-4.1,7.4-4.1c0.3,0,0.5,0,0.8,0l0.9,0.1l0.3-0.8c1.8-5,6.3-8.5,11.6-9l2-0.2c5.5,0.3,10.3,3.8,12.1,9l0.3,0.8l0.9-0.1
		c0.3,0,0.5,0,0.8,0c4.8,0,8.8,3.9,8.8,8.8C-194.7,423.1-198.6,427.1-203.4,427.1z"/>
	<g>
		<path class="st1" d="M-192.8,394.5c-0.3-0.3-0.8-0.5-1.3-0.4c-0.8,0.1-1.6,0.2-2.4,0.2c-7.4,0-13.5-6-13.5-13.5
			c0-0.8,0.1-1.7,0.3-2.6c0.1-0.5-0.1-1-0.4-1.3c-0.3-0.3-0.8-0.5-1.3-0.4c-7.8,1.4-13.5,8.2-13.5,16.1c0,1.9,0.3,3.7,0.9,5.4
			c0.8-0.2,1.7-0.3,2.6-0.3c0.2,0,0.3,0,0.5,0c-0.7-1.6-1-3.3-1-5.2c0-5.8,3.7-10.9,9.1-12.7c0,0.3,0,0.6,0,0.9
			c0,9,7.4,16.4,16.4,16.4c0.2,0,0.4,0,0.7,0c-1.5,4.3-5.2,7.5-9.6,8.5c1.1,0.6,2,1.3,2.8,2.2c5.1-2,9.1-6.5,10.2-12.2
			C-192.3,395.3-192.5,394.8-192.8,394.5z"/>
	</g>
</g>
</svg>
